<svg xmlns="http://www.w3.org/2000/svg" viewBox="0 0 32 32">
  <!-- Top flame (simplified for favicon) -->
  <path d="M16 6 Q12 2 16 0 Q18 3 17 5 Q20 1 19 5 Q17 8 16 6" fill="#FF6B35"/>
  <path d="M16 5.5 Q13.5 3 16 1.5 Q17.5 3.5 17 5 Q16.5 6 16 5.5" fill="#FFD93D"/>
  
  <!-- Head -->
  <circle cx="16" cy="18" r="12" fill="#FFE66D"/>
  <circle cx="16" cy="18" r="12" fill="none" stroke="#2D2D2D" stroke-width="1.5"/>
  
  <!-- Left eye -->
  <circle cx="12" cy="16" r="3" fill="white" stroke="#2D2D2D" stroke-width="1"/>
  <circle cx="12" cy="16" r="1.5" fill="#2D2D2D"/>
  
  <!-- Right eye -->
  <circle cx="20" cy="16" r="3" fill="white" stroke="#2D2D2D" stroke-width="1"/>
  <circle cx="20" cy="16" r="1.5" fill="#2D2D2D"/>
  
  <!-- Eyebrows -->
  <path d="M9 12.5 Q11 11 14 13" fill="none" stroke="#2D2D2D" stroke-width="1.2" stroke-linecap="round"/>
  <path d="M18 13 Q21 11 23 12.5" fill="none" stroke="#2D2D2D" stroke-width="1.2" stroke-linecap="round"/>
  
  <!-- Mouth -->
  <path d="M12 23 Q14 21.5 16 23 Q18 24.5 20 23" fill="none" stroke="#2D2D2D" stroke-width="1.2" stroke-linecap="round"/>
</svg>